<svg width="19" height="12" viewBox="0 0 19 12" fill="none" xmlns="http://www.w3.org/2000/svg">
<g id="Group">
<path id="Vector" d="M3.6347 0.544436C5.29961 0.544436 6.45896 1.69208 6.45896 3.36296C6.45896 5.0398 5.27576 6.19341 3.59295 6.19341H1.74957V9.1249H0.417725V0.544434H3.6347V0.544436ZM1.74957 5.07547H3.27776C4.43733 5.07547 5.09729 4.45118 5.09729 3.36892C5.09729 2.28677 4.43733 1.66833 3.28373 1.66833H1.74957V5.07547Z" fill="#2A2A2A" fill-opacity="0.9"/>
<path id="Vector_2" d="M6.80688 7.34691C6.80688 6.25272 7.64531 5.58083 9.13199 5.49757L10.8444 5.39652V4.91491C10.8444 4.21917 10.3746 3.80294 9.58985 3.80294C8.8464 3.80294 8.38257 4.15965 8.26971 4.71867H7.05669C7.12803 3.58881 8.09124 2.75635 9.63733 2.75635C11.1536 2.75635 12.1228 3.5591 12.1228 4.81375V9.1248H10.8919V8.0961H10.8623C10.4996 8.79184 9.70868 9.23181 8.88815 9.23181C7.6632 9.23181 6.80688 8.4707 6.80688 7.34691ZM10.8444 6.78204V6.28851L9.30426 6.38359C8.53718 6.43715 8.10317 6.77607 8.10317 7.31124C8.10317 7.85822 8.55507 8.21504 9.24485 8.21504C10.1427 8.21504 10.8444 7.5966 10.8444 6.78204Z" fill="#2A2A2A" fill-opacity="0.9"/>
<path id="Vector_3" d="M13.2849 11.4264V10.3857C13.3799 10.4095 13.5939 10.4095 13.7011 10.4095C14.2956 10.4095 14.6168 10.1598 14.8129 9.5176C14.8129 9.50567 14.926 9.13704 14.926 9.13108L12.6665 2.86963H14.0578L15.6396 7.95969H15.6633L17.2451 2.86963H18.6008L16.2578 9.45211C15.7229 10.9685 15.1045 11.4561 13.8082 11.4561C13.7011 11.4561 13.3799 11.4441 13.2849 11.4264Z" fill="#2A2A2A" fill-opacity="0.9"/>
</g>
</svg>
