<svg width="12" height="18" viewBox="0 0 12 18" fill="none" xmlns="http://www.w3.org/2000/svg">
<g id="Medal 5">
<g id="Group">
<path id="Vector" d="M10.563 9.94187C10.5497 9.89212 10.5238 9.84664 10.4878 9.80981C10.4518 9.77298 10.4069 9.74603 10.3575 9.73156C10.3081 9.71709 10.2557 9.7156 10.2056 9.72721C10.1554 9.73882 10.1091 9.76316 10.071 9.79787C9.10582 10.7128 7.86126 11.277 6.53703 11.3999C6.49304 11.4042 6.45056 11.4182 6.41263 11.4409C6.37469 11.4636 6.34224 11.4944 6.31759 11.5311C6.29294 11.5678 6.2767 11.6095 6.27003 11.6532C6.26337 11.6969 6.26644 11.7415 6.27903 11.7839C6.74939 13.7352 7.05843 15.7219 7.20303 17.7238C7.20756 17.7872 7.23208 17.8474 7.27305 17.896C7.31402 17.9445 7.36934 17.9787 7.43102 17.9938H7.50302C7.55322 17.9937 7.60259 17.9811 7.64662 17.957C7.69065 17.9328 7.72792 17.8981 7.75502 17.8558L9.11102 15.6838C9.98199 16.1104 10.7897 16.6556 11.511 17.3038C11.5531 17.3392 11.604 17.3623 11.6583 17.3707C11.7127 17.3791 11.7682 17.3724 11.819 17.3514C11.8698 17.3303 11.9138 17.2957 11.9462 17.2514C11.9787 17.207 11.9983 17.1546 12.003 17.0998C12.003 15.4618 11.103 11.9099 10.563 9.94187Z" fill="#17AC8C"/>
<path id="Vector_2" d="M5.46597 11.4001C4.14758 11.2842 2.90577 10.7309 1.93799 9.82815C1.89995 9.79343 1.85361 9.7691 1.80343 9.75748C1.75326 9.74587 1.70094 9.74737 1.65151 9.76183C1.60208 9.7763 1.55721 9.80325 1.52122 9.84008C1.48522 9.87692 1.45931 9.9224 1.44599 9.97215C0.899995 11.9101 0 15.4621 0 17.1001C0.000824836 17.1588 0.0188645 17.216 0.0518824 17.2646C0.0849002 17.3131 0.131444 17.3509 0.185744 17.3733C0.240044 17.3957 0.299713 17.4016 0.357352 17.3904C0.414991 17.3791 0.468066 17.3512 0.509997 17.3101C1.23134 16.6619 2.03901 16.1167 2.90998 15.6901L4.26598 17.8621C4.29308 17.9044 4.33035 17.9391 4.37438 17.9632C4.41841 17.9873 4.46778 18 4.51797 18.0001H4.58997C4.65166 17.985 4.70698 17.9508 4.74795 17.9022C4.78892 17.8537 4.81344 17.7934 4.81797 17.7301C4.96126 15.7201 5.27031 13.7253 5.74197 11.7661C5.75456 11.7238 5.75763 11.6791 5.75097 11.6354C5.7443 11.5917 5.72806 11.5501 5.70341 11.5134C5.67876 11.4767 5.64631 11.4459 5.60837 11.4232C5.57044 11.4005 5.52796 11.3865 5.48397 11.3821L5.46597 11.4001Z" fill="#17AC8C"/>
<path id="Vector_3" d="M11.402 5.39997C11.402 4.33196 11.0853 3.28793 10.4919 2.39991C9.89858 1.51189 9.05522 0.819762 8.0685 0.411051C7.08179 0.00233973 5.99603 -0.104598 4.94854 0.103761C3.90105 0.31212 2.93887 0.826418 2.18367 1.58162C1.42847 2.33682 0.914171 3.299 0.705812 4.34649C0.497453 5.39398 0.60439 6.47974 1.0131 7.46645C1.42181 8.45317 2.11394 9.29653 3.00196 9.88988C3.88998 10.4832 4.93401 10.7999 6.00202 10.7999C7.43418 10.7999 8.80769 10.231 9.82038 9.21833C10.8331 8.20564 11.402 6.83213 11.402 5.39997ZM9.5 4.72798L7.70001 6.32997L8.40201 8.60995C8.42076 8.66896 8.42079 8.73233 8.4021 8.79136C8.38341 8.85039 8.34692 8.90219 8.29762 8.93965C8.24833 8.97712 8.18865 8.99841 8.12677 9.00061C8.06489 9.00282 8.00385 8.98582 7.95201 8.95195L6.00202 7.69796L4.31603 8.93995C4.26686 8.9751 4.20823 8.99458 4.1478 8.99583C4.08738 8.99709 4.02798 8.98007 3.97739 8.94699C3.92681 8.91391 3.88739 8.86633 3.86431 8.81047C3.84123 8.75462 3.83555 8.69309 3.84803 8.63395L4.34603 6.34197L2.50404 4.72798C2.45897 4.69008 2.42605 4.63975 2.40938 4.58328C2.39272 4.5268 2.39304 4.46666 2.41031 4.41037C2.42759 4.35407 2.46104 4.3041 2.50652 4.26669C2.55199 4.22928 2.60747 4.20608 2.66604 4.19998L5.00603 3.93598L5.71402 1.99199C5.73504 1.93408 5.77339 1.88404 5.82384 1.84868C5.87429 1.81331 5.93441 1.79434 5.99602 1.79434C6.05763 1.79434 6.11775 1.81331 6.16821 1.84868C6.21866 1.88404 6.257 1.93408 6.27802 1.99199L6.98602 3.93598L9.326 4.19998C9.38323 4.20713 9.43718 4.23063 9.4814 4.26765C9.52562 4.30468 9.55822 4.35366 9.57532 4.40874C9.59241 4.46382 9.59327 4.52266 9.57778 4.57822C9.5623 4.63377 9.53113 4.68368 9.488 4.72198L9.5 4.72798Z" fill="#FFCC3A"/>
</g>
</g>
</svg>
