<svg width="14" height="13" viewBox="0 0 14 13" fill="none" xmlns="http://www.w3.org/2000/svg">
<g id="rating">
<path id="rating_2" d="M6.65874 0.73957C6.68646 0.668714 6.73366 0.608101 6.79434 0.56544C6.85502 0.522779 6.92644 0.5 6.99951 0.5C7.07258 0.5 7.144 0.522779 7.20468 0.56544C7.26537 0.608101 7.31257 0.668714 7.34029 0.73957L8.73286 4.24977C8.75893 4.31546 8.80178 4.37233 8.8567 4.41413C8.91162 4.45594 8.97648 4.48105 9.04415 4.48672L12.6603 4.79028C12.9873 4.81775 13.1196 5.24563 12.8706 5.46883L10.1156 7.94267C10.0641 7.98881 10.0258 8.04892 10.0047 8.11639C9.98371 8.18387 9.9808 8.25611 9.99634 8.32521L10.8384 12.0236C10.8554 12.0978 10.8509 12.1756 10.8257 12.2471C10.8005 12.3187 10.7556 12.3808 10.6966 12.4257C10.6377 12.4705 10.5675 12.496 10.4948 12.499C10.422 12.502 10.3501 12.4824 10.288 12.4425L7.19153 10.4611C7.13368 10.4242 7.06725 10.4046 6.99951 10.4046C6.93178 10.4046 6.86534 10.4242 6.8075 10.4611L3.71106 12.4432C3.64897 12.4831 3.57702 12.5027 3.50428 12.4997C3.43154 12.4967 3.36128 12.4712 3.30238 12.4263C3.24347 12.3815 3.19857 12.3194 3.17333 12.2478C3.1481 12.1763 3.14366 12.0985 3.16058 12.0243L4.00269 8.32521C4.0183 8.25612 4.01543 8.18385 3.99439 8.11636C3.97335 8.04886 3.93495 7.98876 3.88341 7.94267L1.1284 5.46883C1.07323 5.41912 1.03332 5.35341 1.01369 5.27999C0.994053 5.20656 0.995573 5.12869 1.01806 5.05617C1.04054 4.98365 1.08298 4.91971 1.14005 4.8724C1.19711 4.82509 1.26625 4.79652 1.33876 4.79028L4.95488 4.48672C5.02254 4.48105 5.0874 4.45594 5.14232 4.41413C5.19724 4.37233 5.2401 4.31546 5.26616 4.24977L6.65874 0.740257V0.73957Z" fill="#F08200" stroke="#F08200" stroke-linecap="round" stroke-linejoin="round"/>
</g>
</svg>
