<svg width="14" height="15" viewBox="0 0 14 15" fill="none" xmlns="http://www.w3.org/2000/svg">
<g id="Frame">
<path id="Vector" d="M9.18741 4C9.18741 4.58016 8.95694 5.13656 8.5467 5.5468C8.13646 5.95703 7.58007 6.1875 6.9999 6.1875C6.41974 6.1875 5.86334 5.95703 5.45311 5.5468C5.04287 5.13656 4.8124 4.58016 4.8124 4C4.8124 3.41984 5.04287 2.86344 5.45311 2.4532C5.86334 2.04297 6.41974 1.8125 6.9999 1.8125C7.58007 1.8125 8.13646 2.04297 8.5467 2.4532C8.95694 2.86344 9.18741 3.41984 9.18741 4V4ZM2.62549 12.2355C2.64423 11.0877 3.11335 9.99326 3.93167 9.18819C4.75 8.38313 5.85196 7.93194 6.9999 7.93194C8.14785 7.93194 9.24981 8.38313 10.0681 9.18819C10.8865 9.99326 11.3556 11.0877 11.3743 12.2355C10.002 12.8648 8.50966 13.1895 6.9999 13.1875C5.4389 13.1875 3.95724 12.8468 2.62549 12.2355Z" stroke="#2A2A2A" stroke-linecap="round" stroke-linejoin="round"/>
</g>
</svg>
