<svg width="14" height="14" viewBox="0 0 14 14" fill="none" xmlns="http://www.w3.org/2000/svg">
<g id="category">
<path id="Vector" d="M4.66667 1.55556V4.66667H1.55556V1.55556H4.66667ZM4.66667 0H1.55556C1.143 0 0.747335 0.163889 0.455612 0.455612C0.163889 0.747335 0 1.143 0 1.55556V4.66667C0 5.07923 0.163889 5.47489 0.455612 5.76661C0.747335 6.05833 1.143 6.22222 1.55556 6.22222H4.66667C5.07923 6.22222 5.47489 6.05833 5.76661 5.76661C6.05833 5.47489 6.22222 5.07923 6.22222 4.66667V1.55556C6.22222 1.143 6.05833 0.747335 5.76661 0.455612C5.47489 0.163889 5.07923 0 4.66667 0Z" fill="#717171"/>
<path id="Vector_2" d="M12.4445 1.55556V4.66667H9.33339V1.55556H12.4445ZM12.4445 0H9.33339C8.92083 0 8.52517 0.163889 8.23344 0.455612C7.94172 0.747335 7.77783 1.143 7.77783 1.55556V4.66667C7.77783 5.07923 7.94172 5.47489 8.23344 5.76661C8.52517 6.05833 8.92083 6.22222 9.33339 6.22222H12.4445C12.8571 6.22222 13.2527 6.05833 13.5444 5.76661C13.8362 5.47489 14.0001 5.07923 14.0001 4.66667V1.55556C14.0001 1.143 13.8362 0.747335 13.5444 0.455612C13.2527 0.163889 12.8571 0 12.4445 0Z" fill="#717171"/>
<path id="Vector_3" d="M12.4445 9.33339V12.4445H9.33339V9.33339H12.4445ZM12.4445 7.77783H9.33339C8.92083 7.77783 8.52517 7.94172 8.23344 8.23344C7.94172 8.52517 7.77783 8.92083 7.77783 9.33339V12.4445C7.77783 12.8571 7.94172 13.2527 8.23344 13.5444C8.52517 13.8362 8.92083 14.0001 9.33339 14.0001H12.4445C12.8571 14.0001 13.2527 13.8362 13.5444 13.5444C13.8362 13.2527 14.0001 12.8571 14.0001 12.4445V9.33339C14.0001 8.92083 13.8362 8.52517 13.5444 8.23344C13.2527 7.94172 12.8571 7.77783 12.4445 7.77783Z" fill="#717171"/>
<path id="Vector_4" d="M4.66667 9.33339V12.4445H1.55556V9.33339H4.66667ZM4.66667 7.77783H1.55556C1.143 7.77783 0.747335 7.94172 0.455612 8.23344C0.163889 8.52517 0 8.92083 0 9.33339V12.4445C0 12.8571 0.163889 13.2527 0.455612 13.5444C0.747335 13.8362 1.143 14.0001 1.55556 14.0001H4.66667C5.07923 14.0001 5.47489 13.8362 5.76661 13.5444C6.05833 13.2527 6.22222 12.8571 6.22222 12.4445V9.33339C6.22222 8.92083 6.05833 8.52517 5.76661 8.23344C5.47489 7.94172 5.07923 7.77783 4.66667 7.77783Z" fill="#717171"/>
</g>
</svg>
