<svg width="18" height="17" viewBox="0 0 18 17" fill="none" xmlns="http://www.w3.org/2000/svg">
<g id="Group">
<path id="Vector" d="M16.3043 0.784165L17.7466 6.45835C17.7789 6.59684 17.7483 6.74552 17.6425 6.87016C15.2171 9.72584 12.6886 12.9751 10.1434 15.7025C9.86524 16.0086 9.47165 16.1967 9.05183 16.2499C8.64512 16.3016 8.21481 16.2266 7.84571 16.0152C5.74222 14.7936 3.69382 13.4685 1.59908 12.2324C1.21949 12.0028 0.995579 11.6704 0.934355 11.3184C0.874879 10.9751 0.970216 10.6121 1.22299 10.306C3.61773 7.40223 6.2495 4.50646 8.73346 1.64058C8.77958 1.57958 8.84026 1.52713 8.91173 1.48651C8.9832 1.44588 9.06393 1.41794 9.14891 1.40443L15.5687 0.37746C15.9046 0.323525 16.2334 0.503553 16.3043 0.784165Z" fill="white"/>
<path id="Vector_2" d="M17.1283 6.56847L16.5886 4.44165C15.9974 4.40156 15.3571 4.30463 14.6671 4.14063C14.6487 4.16833 14.6286 4.1953 14.6067 4.22227C14.4265 4.44821 14.1729 4.58961 13.8475 4.64865C13.5309 4.69821 13.2362 4.645 12.965 4.49121C12.6956 4.33524 12.5295 4.12533 12.4709 3.86148C12.4026 3.59836 12.4612 3.352 12.6449 3.12241C12.8286 2.89428 13.0805 2.75434 13.3988 2.70478C13.7242 2.65375 14.0233 2.70405 14.2945 2.85929C14.5402 3.00069 14.7003 3.18728 14.7711 3.42052C14.793 3.4227 14.814 3.42635 14.8341 3.43145C15.3956 3.56848 15.9178 3.65667 16.4015 3.70332L15.6878 0.893555L9.26795 1.92125L1.75572 10.5852C1.41374 10.9803 1.49595 11.5306 1.98225 11.8148L8.17203 15.5641C8.64958 15.8578 9.29768 15.774 9.64754 15.3753L17.1283 6.56847ZM6.79798 7.96643L8.32509 8.91978L10.0612 8.24849C10.133 8.22007 10.2196 8.24266 10.2589 8.30024C10.2816 8.33231 10.2851 8.37094 10.2712 8.40593L9.65016 9.91467L10.9507 11.0823C10.9577 11.0896 10.9647 11.0969 10.9709 11.1049C11.0058 11.1567 10.9945 11.2222 10.942 11.2623C10.9266 11.2738 10.9086 11.2826 10.8891 11.2882C10.8696 11.2938 10.8489 11.2962 10.8283 11.2951L8.92247 11.2725L7.99098 12.6647C7.97874 12.6851 7.95775 12.7018 7.93413 12.7142C7.88778 12.7361 7.83092 12.7368 7.78369 12.715C7.76008 12.7033 7.73996 12.6873 7.72597 12.6676C7.71985 12.6588 7.71547 12.6494 7.71198 12.6399L7.14871 11.1173L5.27262 10.8104C5.22976 10.8032 5.19128 10.7806 5.16942 10.7492C5.15192 10.7223 5.14492 10.6909 5.15192 10.661C5.16154 10.6282 5.18691 10.5991 5.22189 10.5809L6.78136 9.66686L6.55221 8.0845C6.54924 8.05966 6.55493 8.03463 6.56861 8.01243C6.58229 7.99022 6.60337 7.97177 6.62933 7.9593C6.65528 7.94684 6.685 7.94088 6.71492 7.94214C6.74483 7.9434 6.77368 7.95184 6.79798 7.96643Z" fill="#FFDD55"/>
<path id="Vector_3" d="M4.52481 8.85913L4.07963 8.93056L2.47205 10.7855C2.284 11.002 2.29625 11.2913 2.49916 11.4845C2.47642 11.3307 2.52365 11.1689 2.64173 11.0326L4.52481 8.85913Z" fill="white"/>
</g>
</svg>
