<svg width="17" height="22" viewBox="0 0 17 22" fill="none" xmlns="http://www.w3.org/2000/svg">
<g id="compare">
<path id="compare_2" d="M8.14284 3.85714C9.31618 3.85714 10.479 3.90095 11.6305 3.98857C12.5427 4.05596 13.4004 4.44885 14.0472 5.09566C14.694 5.74247 15.0869 6.60014 15.1543 7.51238C15.3294 9.83416 15.3294 12.1658 15.1543 14.4876C15.0869 15.3999 14.694 16.2575 14.0472 16.9043C13.4004 17.5511 12.5427 17.944 11.6305 18.0114C11.4209 18.0276 11.2105 18.0419 11 18.0552M8.14284 3.85714L11 1M8.14284 3.85714L11 6.71429M8.14284 18.1429C6.96951 18.1429 5.80665 18.099 4.65523 18.0114C3.74298 17.944 2.88532 17.5511 2.23851 16.9043C1.5917 16.2575 1.1988 15.3999 1.13142 14.4876C0.956175 12.1658 0.956175 9.83416 1.13142 7.51238C1.1988 6.60014 1.5917 5.74247 2.23851 5.09566C2.88532 4.44885 3.74298 4.05596 4.65523 3.98857C4.86475 3.97238 5.07523 3.95809 5.2857 3.94476M8.14284 18.1429L5.2857 15.2857M8.14284 18.1429L5.2857 21" stroke="#2A2A2A" stroke-opacity="0.8" stroke-width="1.5" stroke-linecap="round" stroke-linejoin="round"/>
</g>
</svg>
